<svg xmlns="http://www.w3.org/2000/svg" viewBox="0 0 177.71 179.57"><defs><style>.cls-1,.cls-14,.cls-2,.cls-4{fill:none;}.cls-1,.cls-14,.cls-4,.cls-7{stroke:#3d3d3c;}.cls-1,.cls-14,.cls-4{stroke-linecap:round;stroke-linejoin:round;}.cls-1{stroke-width:3px;}.cls-2{stroke:#fab400;stroke-width:11.26px;}.cls-2,.cls-7{stroke-miterlimit:10;}.cls-3{font-size:7px;}.cls-15,.cls-3,.cls-7,.cls-8{fill:#3d3d3c;}.cls-15,.cls-3,.cls-7,.cls-9{font-family:Bebas-Regular, Bebas Regular;}.cls-5{fill:#fab400;}.cls-6,.cls-9{fill:#fff;}.cls-7{font-size:50.11px;stroke-width:0.83px;letter-spacing:-0.04em;}.cls-9{font-size:15.03px;letter-spacing:0.18em;}.cls-10{letter-spacing:0.18em;}.cls-11{letter-spacing:0.18em;}.cls-12{letter-spacing:0.17em;}.cls-13{letter-spacing:0.18em;}.cls-14{stroke-width:2.34px;}.cls-15{font-size:7.5px;}</style></defs><g id="Layer_2" data-name="Layer 2"><g id="OBJECTS"><path class="cls-1" d="M16,79.71a73.65,73.65,0,0,1,145.74-1.14"/><path class="cls-1" d="M161.73,100.45a73.65,73.65,0,0,1-145.75,0"/><path class="cls-2" d="M5.58,78.27A84.17,84.17,0,0,1,172.14,77"/><text class="cls-3" transform="matrix(0.33, -0.94, 0.94, 0.33, 13.22, 63.91)">s</text><text class="cls-3" transform="matrix(0.44, -0.9, 0.9, 0.44, 16.57, 55.48)">a</text><text class="cls-3" transform="matrix(0.54, -0.84, 0.84, 0.54, 21.19, 46.99)">t</text><text class="cls-3" transform="translate(26.15 39.93) rotate(-51.26)">i</text><text class="cls-3" transform="translate(31.35 33.94) rotate(-45.2)">s</text><text class="cls-3" transform="matrix(0.78, -0.63, 0.63, 0.78, 37.99, 27.76)">f</text><text class="cls-3" transform="matrix(0.84, -0.54, 0.54, 0.84, 44.68, 22.76)">a</text><text class="cls-3" transform="translate(53.03 17.89) rotate(-25.65)">c</text><text class="cls-3" transform="translate(61.79 14.12) rotate(-19.05)">t</text><text class="cls-3" transform="translate(70.04 11.63) rotate(-13.06)">i</text><text class="cls-3" transform="matrix(0.99, -0.11, 0.11, 0.99, 77.83, 10.13)">o</text><text class="cls-3" transform="translate(87.94 9.36) rotate(0.84)">n</text><text class="cls-3" transform="matrix(0.99, 0.12, -0.12, 0.99, 98.12, 9.9)"> </text><text class="cls-3" transform="matrix(0.97, 0.23, -0.23, 0.97, 105.79, 11.14)">g</text><text class="cls-3" transform="translate(115.6 13.92) rotate(20.9)">u</text><text class="cls-3" transform="translate(124.93 17.92) rotate(28.05)">a</text><text class="cls-3" transform="translate(133.28 22.81) rotate(34.61)">r</text><text class="cls-3" transform="matrix(0.75, 0.66, -0.66, 0.75, 140.12, 27.93)">a</text><text class="cls-3" transform="translate(147.16 34.57) rotate(48.2)">n</text><text class="cls-3" transform="translate(153.61 42.4) rotate(54.89)">t</text><text class="cls-3" transform="translate(158.28 49.6) rotate(61.48)">e</text><text class="cls-3" transform="translate(162.61 58.39) rotate(68.55)">e</text><path class="cls-2" d="M172.14,102a84.17,84.17,0,0,1-166.57,0"/><path class="cls-4" d="M156.64,99.38A68.39,68.39,0,0,1,21.07,98.24"/><polygon class="cls-5" points="167.68 81.6 165.21 86.6 159.69 87.4 163.69 91.29 162.75 96.79 167.68 94.19 172.62 96.79 171.68 91.29 175.67 87.4 170.15 86.6 167.68 81.6"/><polygon class="cls-5" points="10.27 81.6 7.8 86.6 2.28 87.4 6.28 91.29 5.33 96.79 10.27 94.19 15.21 96.79 14.26 91.29 18.26 87.4 12.74 86.6 10.27 81.6"/><path class="cls-5" d="M89,49.14l14,5.31V23a61.16,61.16,0,0,0-14.16-1.48A65.88,65.88,0,0,0,74.69,23V54.45Z"/><rect class="cls-6" x="81.53" y="43.64" width="14.66" height="0.9"/><polygon class="cls-6" points="96.19 42.62 81.53 42.62 81.53 36.62 84.76 41.72 88.92 36.62 93 41.72 96.19 36.62 96.19 42.62"/><path class="cls-6" d="M89.43,35.6a.51.51,0,0,1-1,0,.51.51,0,0,1,1,0Z"/><path class="cls-6" d="M81.93,35.6a.5.5,0,0,1-.51.5.5.5,0,0,1-.5-.5.5.5,0,0,1,.5-.51A.51.51,0,0,1,81.93,35.6Z"/><path class="cls-6" d="M96.8,35.6a.51.51,0,0,1-1,0,.51.51,0,1,1,1,0Z"/><path class="cls-5" d="M89,129.77l14-5.31v31.46a61.17,61.17,0,0,1-14.16,1.47,65.91,65.91,0,0,1-14.17-1.47V124.46Z"/><rect class="cls-6" x="81.53" y="146.23" width="14.66" height="0.9"/><polygon class="cls-6" points="96.19 145.21 81.53 145.21 81.53 139.22 84.76 144.31 88.92 139.22 93 144.31 96.19 139.22 96.19 145.21"/><path class="cls-6" d="M89.43,138.19a.51.51,0,1,1-.51-.51A.51.51,0,0,1,89.43,138.19Z"/><path class="cls-6" d="M81.93,138.19a.51.51,0,0,1-.51.51.51.51,0,0,1,0-1A.51.51,0,0,1,81.93,138.19Z"/><path class="cls-6" d="M96.8,138.19a.51.51,0,1,1-.51-.51A.51.51,0,0,1,96.8,138.19Z"/><text class="cls-7" transform="translate(33.14 94.99)">100%</text><polygon class="cls-8" points="140.79 117.49 36.69 117.49 41.81 109.2 36.69 100.76 140.79 100.76 135.67 109.05 140.79 117.49"/><text class="cls-9" transform="translate(44.81 114.44)">gua<tspan class="cls-10" x="32.04" y="0">r</tspan><tspan x="39.59" y="0">a</tspan><tspan class="cls-11" x="49.54" y="0">n</tspan><tspan class="cls-12" x="60.53" y="0">t</tspan><tspan class="cls-13" x="68.12" y="0">ee</tspan></text><path class="cls-4" d="M21,82.08a68.38,68.38,0,0,1,135.81-.7"/><path class="cls-14" d="M70.18,150.31A63,63,0,0,1,69.81,30.1"/><path class="cls-14" d="M107.31,29.89a63,63,0,0,1,.33,120.42"/><text class="cls-15" transform="translate(6.47 115.43) rotate(73.26)">s</text><text class="cls-15" transform="translate(9.83 125.1) rotate(66.13)">a</text><text class="cls-15" transform="translate(14.65 134.82) rotate(59.21)">t</text><text class="cls-15" transform="matrix(0.6, 0.8, -0.8, 0.6, 19.98, 142.95)">i</text><text class="cls-15" transform="translate(25.68 149.89) rotate(46.55)">s</text><text class="cls-15" transform="translate(33 156.99) rotate(40.01)">f</text><text class="cls-15" transform="translate(40.5 162.77) rotate(33.21)">a</text><text class="cls-15" transform="matrix(0.9, 0.44, -0.44, 0.9, 49.85, 168.34)">c</text><text class="cls-15" transform="matrix(0.95, 0.33, -0.33, 0.95, 59.7, 172.61)">t</text><text class="cls-15" transform="translate(69 175.37) rotate(12.72)">i</text><text class="cls-15" transform="translate(77.87 177) rotate(5.87)">o</text><text class="cls-15" transform="translate(89.27 177.69) rotate(-1.7)">n</text><text class="cls-15" transform="translate(100.65 176.85) rotate(-8.46)"> </text><text class="cls-15" transform="translate(109.34 175.2) rotate(-15.29)">g</text><text class="cls-15" transform="translate(120.3 171.69) rotate(-23.05)">u</text><text class="cls-15" transform="matrix(0.86, -0.51, 0.51, 0.86, 130.58, 166.77)">a</text><text class="cls-15" transform="translate(139.71 160.84) rotate(-37.45)">r</text><text class="cls-15" transform="translate(147.14 154.65) rotate(-44.28)">a</text><text class="cls-15" transform="matrix(0.62, -0.79, 0.79, 0.62, 154.62, 146.72)">n</text><text class="cls-15" transform="translate(161.28 137.46) rotate(-58.8)">t</text><text class="cls-15" transform="translate(165.96 128.97) rotate(-65.75)">e</text><text class="cls-15" transform="translate(170.07 118.7) rotate(-73.22)">e</text></g></g></svg>