<svg xmlns="http://www.w3.org/2000/svg" viewBox="0 0 2881.01 1470.75"><defs><style>.cls-1{fill:#ebf3fa;}.cls-2{fill:#a4c8fc;}.cls-3{fill:#ffb93e;}.cls-4{fill:#ffa412;}.cls-5{fill:#b4c9f7;}.cls-6{fill:#9bb8ea;}.cls-7{fill:#2e3552;}.cls-8{fill:#ea8e50;}.cls-9{fill:#1e3d70;}.cls-10{fill:#233862;}.cls-11{fill:#e2810e;}.cls-12{fill:#2b478b;}.cls-13{fill:#ffb07b;}.cls-14{fill:#d2e3fc;}.cls-15{fill:#ffb27d;}.cls-16{fill:#ed975d;}.cls-17{fill:#fff;}.cls-18{fill:#ebf3ff;}.cls-19{fill:#f99746;}.cls-20{fill:#ed7d2b;}.cls-21{fill:#739af0;}.cls-22{fill:#618dd8;}.cls-23{fill:#2c3a64;}.cls-24{fill:#ed985f;}.cls-25{fill:#c94c43;}.cls-26{fill:#b23b38;}.cls-27{fill:#afcdfb;}.cls-28{fill:#dfedfb;}.cls-29{fill:#cde3fd;}</style></defs><g id="Layer_2" data-name="Layer 2"><g id="Слой_1" data-name="Слой 1"><path class="cls-1" d="M185.22,1467.15s-348.37-349.55-58.91-728c256.83-335.78,556.26-312.83,776-176.57,93.57,58,363.34,7.15,593-334.52C1808.34-237.87,2893.75,44.73,2695.85,761.59c-95.77,346.91,291.47,359.52,94.15,706.3Z"/><path class="cls-2" d="M1738.84,1320.51c0-.2,1.1-22.77-9.81-28l.77-.74c5,1.74,10.53,7.14,12.75,14.75,1.64,5.66.39,6.9.4,7.12Z"/><path class="cls-2" d="M1666.55,1262s3.73,29,21.45,37.56,42.73-6.76,42.73-6.76-3.73-29.06-21.45-37.57S1666.55,1262,1666.55,1262Z"/><path class="cls-2" d="M1737,1362.86c-.21-1.14-4.14-27.72,5.92-57.35,9.67-28.46,4.31-52.59,4.27-52.83h7.11c.19,1,.68,24.71-6.89,57.18-6.82,29.21,5.91,53,3.2,53Z"/><path class="cls-2" d="M1751.92,1284.38c0-.15,3.43-19.63,12.56-21.85h0a17,17,0,0,0-12.17,8.9c-2.16,4-1.4,5.2-1.44,5.36Z"/><path class="cls-2" d="M1781.23,1286.39c-13.65-2.75-21.27-22.07-21.27-22.07s14.52-14.84,28.17-12.08,21.28,22.07,21.28,22.07S1794.89,1289.15,1781.23,1286.39Z"/><path class="cls-3" d="M1675.16,1223.45a71.58,71.58,0,1,1,99.15,20.41A71.58,71.58,0,0,1,1675.16,1223.45Z"/><path class="cls-4" d="M1771.27,1239.26a65.22,65.22,0,1,1,28-41.32A64.81,64.81,0,0,1,1771.27,1239.26Zm-69.6-105.69a61.33,61.33,0,1,0,84.95,17.49A61.4,61.4,0,0,0,1701.67,1133.57Z"/><path class="cls-4" d="M1753.31,1195.66a10.69,10.69,0,0,0-2.21-3.08,7.8,7.8,0,0,0-3.07-1.74,14.66,14.66,0,0,0-4.23-.6,38.47,38.47,0,0,0-5.67.41q-5.61.7-10.42.83a32.51,32.51,0,0,1-8.79-.89,19.11,19.11,0,0,1-7.12-3.45,21.54,21.54,0,0,1-7.51-14.57,18.1,18.1,0,0,1,1.14-7.46,22.54,22.54,0,0,1,4.14-6.86,30.14,30.14,0,0,1,7-5.84l-4.85-9.68,7.79-3.9,4.91,9.81a27.47,27.47,0,0,1,8.71-1.59,20.43,20.43,0,0,1,14.8,5.91,27.26,27.26,0,0,1,5.38,7.52l-14.07,7q-2.71-5.43-6.47-6.91a9.2,9.2,0,0,0-7.8.54,11.62,11.62,0,0,0-3.47,2.5,8,8,0,0,0-1.77,3,7.34,7.34,0,0,0-.25,3.27,10.94,10.94,0,0,0,1.08,3.37,9.77,9.77,0,0,0,2,2.78,7.43,7.43,0,0,0,2.94,1.67,14.87,14.87,0,0,0,4.25.59,51,51,0,0,0,6-.35q5.6-.6,10.4-.69a32.93,32.93,0,0,1,8.79,1,19.43,19.43,0,0,1,7.13,3.47,21.62,21.62,0,0,1,7.53,14.67,17.91,17.91,0,0,1-1.18,7.44,21.94,21.94,0,0,1-4.26,6.77,32.1,32.1,0,0,1-7,5.79l4.51,9-7.74,3.88-4.49-9a37.17,37.17,0,0,1-8.7,2.15,23.43,23.43,0,0,1-8.65-.56,20.75,20.75,0,0,1-7.9-4.11,25.17,25.17,0,0,1-6.42-8.44l14.07-7a15.59,15.59,0,0,0,3.58,4.9,10.06,10.06,0,0,0,4.14,2.24,9.74,9.74,0,0,0,4.33.08,16.5,16.5,0,0,0,4.19-1.44,14,14,0,0,0,3.72-2.6,9.32,9.32,0,0,0,2.08-3.08,7.5,7.5,0,0,0,.52-3.34A9.14,9.14,0,0,0,1753.31,1195.66Z"/><polygon class="cls-5" points="1808.51 1355.94 1808.51 1356 1807.08 1377.93 1801.78 1459.34 1702.71 1459.34 1696.88 1379.04 1695.27 1356.91 1695.2 1355.94 1808.51 1355.94"/><path class="cls-6" d="M1808.5,1356l-1.42,21.93a173.5,173.5,0,0,0-55.23-8.85c-34.12,0-55,10-55,10l-1.61-22.13Z"/><polygon class="cls-5" points="1811.95 1367.53 1691.61 1367.53 1690.23 1353.54 1813.48 1353.54 1811.95 1367.53"/><polygon class="cls-5" points="1803.3 1463.69 1700.58 1463.69 1699.4 1458.81 1804.61 1458.81 1803.3 1463.69"/><rect class="cls-7" y="1463.11" width="2881.01" height="7.64" rx="3.26"/><path class="cls-8" d="M2423.63,939.48,2414,947.3s-26.31-9.44-32.25,21.83c0,0-1.58,13.32,6.86,13.35s5-1.46,16.91-1.11,21.86-6,23.61-15.65l5.72-8.22Z"/><path class="cls-9" d="M2424.72,956.25c-7.67-8-7-13.94-7-13.94s88.86-72.75,97.87-78.67c6.14-4,71.58-62.06,102.17-97.43,15.17-17.54,34-10.74,55.47-4.57l17.71,5.08c21.38,6.14,27,36,9.4,50.58-49.41,40.93-131.61,87-147,96.64-38.19,24-112.92,52.56-112.92,52.56A47.38,47.38,0,0,1,2424.72,956.25Z"/><path class="cls-10" d="M2323.31,1403.22s-21.56,16.16-54.6,7.62c0,0-26.65-6.07-32.49,7.22,0,0,40.86,20.76,51.2,26.43,7.79,4.28,15.92,11,21.67,16.26a10.72,10.72,0,0,0,15.52-1.2c1.8-2.21,3.85-4.84,6.11-7.9,6.3-8.54,21-36.11,21-36.11Z"/><circle class="cls-11" cx="2418.57" cy="812.95" r="150.78" transform="translate(1286.43 3099.56) rotate(-82.24)"/><circle class="cls-3" cx="2431.73" cy="812.95" r="150.78" transform="translate(137.4 1957.6) rotate(-45)"/><path class="cls-4" d="M2334.59,911.87a137.38,137.38,0,1,1,97.14,40.23A136.48,136.48,0,0,1,2334.59,911.87Zm-32-97.14a129.33,129.33,0,0,0,129.18,129.18c71.22,0,129.17-57.95,129.17-129.18s-58-129.18-129.17-129.18A129.33,129.33,0,0,0,2302.55,814.73Z"/><path class="cls-4" d="M2415,861.68a15.53,15.53,0,0,0,4.79,5.28,19.56,19.56,0,0,0,7.22,3,29.42,29.42,0,0,0,9.56.26,35.46,35.46,0,0,0,9-2.3,20.68,20.68,0,0,0,7.53-5.19,21.26,21.26,0,0,0,4.68-8.71,32.63,32.63,0,0,0,.62-12.79l32.92-3.9q1.5,12.69-1.52,22.28a43.58,43.58,0,0,1-9.14,16.37,48.54,48.54,0,0,1-14.58,11,76.51,76.51,0,0,1-17.79,6.3l2.49,21-18.11,2.15-2.5-21.06a68.67,68.67,0,0,1-19.13-2,46,46,0,0,1-15.32-7,37.73,37.73,0,0,1-10.69-11.72,45.56,45.56,0,0,1-3.75-34.53,40.89,40.89,0,0,1,8.52-14.37,69.42,69.42,0,0,1,14.36-11.84q8.54-5.42,19.1-10.85a106.73,106.73,0,0,0,10.86-6.28,31.09,31.09,0,0,0,6.8-6,15.53,15.53,0,0,0,3.24-6.34,21.2,21.2,0,0,0,.29-7.22,22.76,22.76,0,0,0-2-7.16,15.64,15.64,0,0,0-4.23-5.46,16.7,16.7,0,0,0-6.56-3.19,24.59,24.59,0,0,0-9-.38q-9.45,1.13-14.34,8.08T2405,788.79l-32.91,3.9a57.15,57.15,0,0,1,.75-19.45,43.13,43.13,0,0,1,19.2-27.55,56.8,56.8,0,0,1,17.15-7.29l-2.72-23,18.22-2.17,2.69,22.65a63.42,63.42,0,0,1,19,2.19,47.59,47.59,0,0,1,15.24,7.26,38.12,38.12,0,0,1,10.64,11.83,45.34,45.34,0,0,1,3.67,34.33,40.3,40.3,0,0,1-8.52,14.31A68.6,68.6,0,0,1,2453,817.59a218.41,218.41,0,0,1-19.3,10.6,82.76,82.76,0,0,0-10.46,5.86,31.09,31.09,0,0,0-6.74,6,16.55,16.55,0,0,0-3.37,6.62,22.64,22.64,0,0,0-.33,8A19.1,19.1,0,0,0,2415,861.68Z"/><path class="cls-12" d="M2310.66,1395s13.13,30.28,43.44,24.72c0,0,61.85-51.08,104.28-104.15,13.78-17.23,25.51-34.67,32.4-50.64,28.14-65.14,104.07-162.29,152.35-211.53l-120.79-43.7s-38.69,77.83-90.17,173.43C2395.07,1252,2351.34,1330.14,2310.66,1395Z"/><path class="cls-10" d="M2432.17,1183.14l26.21,132.44c13.78-17.23,25.51-34.67,32.4-50.64,28.14-65.14,104.07-162.29,152.35-211.53l-120.79-43.7S2483.65,1087.54,2432.17,1183.14Z"/><path class="cls-10" d="M2530.91,1420.79s1.31,24.16-28,27.39c0,0-16.73.09-16.78,15.46l85.12.27s2.48-6.2,3.07-19.49c.47-10.2-9.88-36.87-9.88-36.87Z"/><path class="cls-12" d="M2562,1009.71s-53.81,59.13-88,165.66c-18.59,58,34.06,203.69,44.33,254.32,0,0,35.32,3,59.47-6.34,0,0,1.83-104.58-12.29-185.18-7.91-45.11,70.85-96.47,105.26-178,23.41-55.45-5.07-54.51-40.07-55.84Z"/><path class="cls-13" d="M2624.08,745.91c29.94,16.9,91.23,1.31,91.23,1.31s-24.89-28.46-13.58-74.29l-23.51,11.94L2653,697.7a209.15,209.15,0,0,0-2.76,22.63c-.29,3.74-.55,7.92-.73,12.49A78.52,78.52,0,0,0,2624.08,745.91Z"/><path class="cls-14" d="M2514.29,1006.66c0,5.26,6.07,7.78,7.35,8,12.08,2.21,45.8,15.33,76.17,18.33,25.58,2.68,49.32.14,75.41-5.1,3.45-.69,11.56-2.88,12.14-6.19.72-3.61,100.62-203.66,23-289.59-1.82-2-17.15,1.61-31.17,4.94a57.52,57.52,0,0,1-35.43-2.9l-13.15,6.92c-16.15,9-46.7,41-50.27,66-1.82,12.76-9.11,22.21-11.22,33.43q-1.18,6.23-2.4,12.15-2.38,11.63-4.92,22.14c-4.57,19-9.39,35.3-14.12,49.41-5,15-10,27.44-14.4,37.86-5.73,13.51-10.56,23.61-13.59,31.35C2515.52,998.92,2514.29,1003.19,2514.29,1006.66Z"/><path class="cls-2" d="M2517.65,993.48c141-66.45,189.87-194,189.87-194s-114.58,42.27-142.84,53.27q-2.38,11.63-4.92,22.14c-4.57,19-9.39,35.3-14.12,49.41-5,15-10,27.44-14.4,37.86C2525.51,975.64,2520.68,985.74,2517.65,993.48Z"/><path class="cls-13" d="M2435.14,955,2423,959.44s-24.41-17.25-39.6,10.81c0,0-5.5,12.26,3.2,14.92s5.54.16,17.77,4.23,24.27,1.14,28.89-7.6l8.28-6.07Z"/><path class="cls-14" d="M2425.11,972.21c-4.5-11.76-6.56-17.08-6.56-17.08s92.08-75.06,101.47-81.5c6.39-4.39,70-52,101.07-89a64.94,64.94,0,0,1,63.14-21.87l19.34,4c23.34,4.89,30.92,34.44,12.81,50-51,43.72-137,94.42-153,105-39.81,26.18-127.86,62.87-127.86,62.87S2428.65,981.44,2425.11,972.21Z"/><path class="cls-8" d="M2650.21,720.33c29.44,1.65,48.58-22.66,48.58-22.66s-13.31-7.37-20.57-12.8L2653,697.7A209.15,209.15,0,0,0,2650.21,720.33Z"/><path class="cls-13" d="M2637.66,690.1s44.61,32,64.12,3.93,38.41-42.88,10.75-64.5-40.7-14.8-49.49-7S2626.56,681.05,2637.66,690.1Z"/><path class="cls-10" d="M2658.33,597.16a71.85,71.85,0,0,1,5.2-18.4s2.8,11.6,24,10,54.78,2.08,66,26.23q1.07,2.31,1.91,4.74c2-5.35,2.51-13.38,2.51-13.38,4,10.4,0,23.4,0,23.4h0c.06.38.11.76.17,1.14,4.68,4,8.6,16.25,8.6,16.25-1.41-3.43-4.85-5.67-7.92-7,.1,18.79-7.52,37.16-20.9,42.63-19.56,8-19.4,1.9-39.08,14.94,0,0-5.27-6.54-1.67-10.94s17.19-10.8,9.59-17.2-10.39.8-13.19-3.6,11.19-17.19-6.8-29.19S2656.73,608,2658.33,597.16Z"/><path class="cls-3" d="M737.56,1439v17.43a6,6,0,0,1-1.37,3.75,8,8,0,0,1-3.76,2.51,8.88,8.88,0,0,1-1.46.35,9.36,9.36,0,0,1-1.41.1H399c-4.26,0-7.77-2.83-8-6.37,0-.11,0-.23,0-.34V1439c0-.11,0-.23,0-.34.21-3.54,3.72-6.37,8-6.37H729.56a8.21,8.21,0,0,1,1.41.11,8.45,8.45,0,0,1,5.22,2.85A6,6,0,0,1,737.56,1439Z"/><path class="cls-4" d="M575.26,1463.18H398.19a7,7,0,0,1-7.13-6.37c0-.11,0-.23,0-.34V1439c0-.11,0-.23,0-.34a7,7,0,0,1,7.13-6.37H553.51A54.07,54.07,0,0,0,575.26,1463.18Z"/><rect class="cls-4" x="693.58" y="1432.33" width="3.76" height="30.86"/><rect class="cls-4" x="680.87" y="1432.33" width="3.76" height="30.86"/><rect class="cls-4" x="665.62" y="1432.33" width="3.76" height="30.86"/><rect class="cls-4" x="642.25" y="1432.33" width="3.76" height="30.86"/><rect class="cls-4" x="617.53" y="1432.33" width="3.76" height="30.86"/><rect class="cls-4" x="579.64" y="1432.33" width="3.76" height="30.86"/><rect class="cls-4" x="544.16" y="1432.33" width="3.76" height="30.86"/><rect class="cls-4" x="512.48" y="1432.33" width="3.76" height="30.86"/><rect class="cls-4" x="705.69" y="1432.33" width="3.76" height="30.86"/><rect class="cls-4" x="713.68" y="1432.33" width="3.76" height="30.86"/><rect class="cls-4" x="721.4" y="1432.33" width="3.76" height="30.86"/><path class="cls-4" d="M731,1432.44v30.64a9.36,9.36,0,0,1-1.41.1h-2.35v-30.85h2.35A8.21,8.21,0,0,1,731,1432.44Z"/><path class="cls-4" d="M736.19,1435.29v24.93a8,8,0,0,1-3.76,2.51v-30A8,8,0,0,1,736.19,1435.29Z"/><path class="cls-3" d="M702.22,1408.19v17.42a6,6,0,0,1-1.37,3.75,8,8,0,0,1-3.75,2.52,8.74,8.74,0,0,1-1.47.34,9.36,9.36,0,0,1-1.41.11H363.71c-4.27,0-7.78-2.84-8-6.37,0-.12,0-.23,0-.35v-17.42c0-.12,0-.23,0-.35.21-3.53,3.72-6.37,8-6.37H694.22l.63,0,.27,0,.3,0,.21,0a7.88,7.88,0,0,1,1.47.35l.2.07.21.07.4.16.23.11.2.1.38.2.41.26a2.82,2.82,0,0,1,.31.21h0l.2.16a5.47,5.47,0,0,1,.58.5l.16.15.15.17c.1.11.21.22.3.34A6,6,0,0,1,702.22,1408.19Z"/><path class="cls-4" d="M539.92,1432.33H362.85a7,7,0,0,1-7.13-6.37c0-.12,0-.23,0-.35v-17.42c0-.12,0-.23,0-.35a7,7,0,0,1,7.13-6.37H518.17c.07.25.14.51.22.76A53.94,53.94,0,0,0,539.92,1432.33Z"/><rect class="cls-4" x="658.24" y="1401.47" width="3.76" height="30.86"/><rect class="cls-4" x="645.53" y="1401.47" width="3.76" height="30.86"/><rect class="cls-4" x="630.28" y="1401.47" width="3.76" height="30.86"/><rect class="cls-4" x="606.91" y="1401.47" width="3.76" height="30.86"/><rect class="cls-4" x="582.19" y="1401.47" width="3.76" height="30.86"/><rect class="cls-4" x="544.3" y="1401.47" width="3.76" height="30.86"/><rect class="cls-4" x="508.82" y="1401.47" width="3.76" height="30.86"/><rect class="cls-4" x="477.15" y="1401.47" width="3.76" height="30.86"/><rect class="cls-4" x="670.35" y="1401.47" width="3.76" height="30.86"/><rect class="cls-4" x="678.34" y="1401.47" width="3.76" height="30.86"/><rect class="cls-4" x="686.06" y="1401.47" width="3.76" height="30.86"/><path class="cls-4" d="M695.63,1401.58v30.64a9.36,9.36,0,0,1-1.41.11h-2.35v-30.86h2.35A9.36,9.36,0,0,1,695.63,1401.58Z"/><path class="cls-4" d="M700.85,1404.44v24.92a7.88,7.88,0,0,1-3.76,2.51v-29.95A8,8,0,0,1,700.85,1404.44Z"/><path class="cls-3" d="M719.3,1378.09v17.43a5.94,5.94,0,0,1-1.38,3.75,7.92,7.92,0,0,1-3.75,2.51,8.88,8.88,0,0,1-1.46.35,9.36,9.36,0,0,1-1.41.1H380.78a9.07,9.07,0,0,1-3.68-.76,6.87,6.87,0,0,1-4.28-5.31l0-.3v-18.11c.22-3.54,3.73-6.37,8-6.37H711.3a9.36,9.36,0,0,1,1.41.1,8.88,8.88,0,0,1,1.46.35,8,8,0,0,1,3.75,2.51A5.94,5.94,0,0,1,719.3,1378.09Z"/><path class="cls-4" d="M557,1402.23H379.92a7.33,7.33,0,0,1-3.28-.76,6.74,6.74,0,0,1-3.82-5.31l0-.3v-18.11a7,7,0,0,1,7.13-6.37H535.25a54.14,54.14,0,0,0,20.66,30.09Z"/><rect class="cls-4" x="675.32" y="1371.38" width="3.76" height="30.86"/><rect class="cls-4" x="662.61" y="1371.38" width="3.76" height="30.86"/><rect class="cls-4" x="647.36" y="1371.38" width="3.76" height="30.86"/><rect class="cls-4" x="623.98" y="1371.38" width="3.76" height="30.86"/><rect class="cls-4" x="599.27" y="1371.38" width="3.76" height="30.86"/><rect class="cls-4" x="561.38" y="1371.38" width="3.76" height="30.86"/><rect class="cls-4" x="525.9" y="1371.38" width="3.76" height="30.86"/><rect class="cls-4" x="494.22" y="1371.38" width="3.76" height="30.86"/><rect class="cls-4" x="687.42" y="1371.38" width="3.76" height="30.86"/><rect class="cls-4" x="695.42" y="1371.38" width="3.76" height="30.86"/><rect class="cls-4" x="703.14" y="1371.38" width="3.76" height="30.86"/><path class="cls-4" d="M712.71,1371.48v30.65a9.36,9.36,0,0,1-1.41.1H709v-30.85h2.35A9.36,9.36,0,0,1,712.71,1371.48Z"/><path class="cls-4" d="M717.93,1374.34v24.93a8.08,8.08,0,0,1-3.76,2.51v-30A8,8,0,0,1,717.93,1374.34Z"/><path class="cls-3" d="M727.21,1347.24v17.42a5.91,5.91,0,0,1-1.37,3.75,8.56,8.56,0,0,1-5.21,2.86,9.36,9.36,0,0,1-1.41.11H388.7c-4.26,0-7.77-2.84-8-6.37,0-.12,0-.23,0-.35v-17.42c0-.12,0-.23,0-.35.2-3.27,3.22-5.94,7-6.32.31,0,.63,0,.95,0H719.22a9.36,9.36,0,0,1,1.41.11,8.86,8.86,0,0,1,1.46.34,8,8,0,0,1,3.75,2.52A5.91,5.91,0,0,1,727.21,1347.24Z"/><path class="cls-4" d="M564.91,1371.38H387.84a7,7,0,0,1-7.13-6.37c0-.12,0-.23,0-.35v-17.42c0-.12,0-.23,0-.35a6.93,6.93,0,0,1,6.29-6.32,7.58,7.58,0,0,1,.84,0H543.17v0A54.12,54.12,0,0,0,564.91,1371.38Z"/><rect class="cls-4" x="683.24" y="1340.52" width="3.76" height="30.85"/><rect class="cls-4" x="670.52" y="1340.52" width="3.76" height="30.85"/><rect class="cls-4" x="655.27" y="1340.52" width="3.76" height="30.85"/><rect class="cls-4" x="631.9" y="1340.52" width="3.76" height="30.85"/><rect class="cls-4" x="607.19" y="1340.52" width="3.76" height="30.85"/><rect class="cls-4" x="569.29" y="1340.52" width="3.76" height="30.85"/><rect class="cls-4" x="533.82" y="1340.52" width="3.76" height="30.85"/><rect class="cls-4" x="502.14" y="1340.52" width="3.76" height="30.85"/><rect class="cls-4" x="695.34" y="1340.52" width="3.76" height="30.85"/><rect class="cls-4" x="703.34" y="1340.52" width="3.76" height="30.85"/><rect class="cls-4" x="711.06" y="1340.52" width="3.76" height="30.85"/><path class="cls-4" d="M720.63,1340.63v30.64a9.36,9.36,0,0,1-1.41.11h-2.35v-30.86h2.35A9.36,9.36,0,0,1,720.63,1340.63Z"/><path class="cls-4" d="M725.84,1343.49v24.92a7.9,7.9,0,0,1-3.75,2.51v-30A8,8,0,0,1,725.84,1343.49Z"/><path class="cls-3" d="M702.91,1316.43v17.42a5.91,5.91,0,0,1-1.37,3.75,8,8,0,0,1-3.75,2.52,8.86,8.86,0,0,1-1.46.34c-.16,0-.31,0-.47.06l-.26,0-.26,0H364.4c-4.26,0-7.77-2.84-8-6.37,0-.12,0-.23,0-.35v-17.42c0-.12,0-.23,0-.35s0-.19,0-.28c.32-2.84,2.78-5.19,6-5.88l.24-.05a9.85,9.85,0,0,1,1.73-.16H694.92c.24,0,.48,0,.71,0l.32,0h0l.38,0a8.88,8.88,0,0,1,1.46.35,7.9,7.9,0,0,1,3.75,2.51A5.91,5.91,0,0,1,702.91,1316.43Z"/><path class="cls-4" d="M540.61,1340.57H363.54a7,7,0,0,1-7.13-6.37c0-.12,0-.23,0-.35v-17.42c0-.12,0-.23,0-.35s0-.19,0-.28a6.91,6.91,0,0,1,5.54-5.92l.31-.06a7.47,7.47,0,0,1,1.26-.11H518.87a1.41,1.41,0,0,0,.06.22,54.09,54.09,0,0,0,21.61,30.59Z"/><rect class="cls-4" x="658.94" y="1309.71" width="3.76" height="30.86"/><rect class="cls-4" x="646.22" y="1309.71" width="3.76" height="30.86"/><rect class="cls-4" x="630.97" y="1309.71" width="3.76" height="30.86"/><rect class="cls-4" x="607.6" y="1309.71" width="3.76" height="30.86"/><rect class="cls-4" x="582.89" y="1309.71" width="3.76" height="30.86"/><rect class="cls-4" x="545" y="1309.71" width="3.76" height="30.86"/><rect class="cls-4" x="509.52" y="1309.71" width="3.76" height="30.86"/><rect class="cls-4" x="477.84" y="1309.71" width="3.76" height="30.86"/><rect class="cls-4" x="671.04" y="1309.71" width="3.76" height="30.86"/><rect class="cls-4" x="679.04" y="1309.71" width="3.76" height="30.86"/><rect class="cls-4" x="686.76" y="1309.71" width="3.76" height="30.86"/><path class="cls-4" d="M696.33,1309.82v30.64a9.36,9.36,0,0,1-1.41.11h-2.35v-30.86h2.35A9.36,9.36,0,0,1,696.33,1309.82Z"/><path class="cls-4" d="M701.54,1312.68v24.92a8,8,0,0,1-3.75,2.52v-29.95A7.9,7.9,0,0,1,701.54,1312.68Z"/><path class="cls-3" d="M702.22,1285.79v17.43a6,6,0,0,1-1.37,3.75,8,8,0,0,1-3.75,2.51,8.79,8.79,0,0,1-1.15.29h0l-.32.06a9.36,9.36,0,0,1-1.41.1H363.71a8.94,8.94,0,0,1-1-.06l-.39,0c-3.6-.54-6.37-3.13-6.56-6.26,0-.11,0-.23,0-.34v-17.43c0-.11,0-.23,0-.34.21-3.54,3.72-6.37,8-6.37H694.22l.63,0,.27,0,.3,0,.21,0a8.76,8.76,0,0,1,1.47.35l.2.07.21.08.4.16c.14.07.29.13.43.21l.38.2c.14.08.28.16.41.25l.31.21,0,0,.2.15c.2.16.4.33.58.5l.16.16.15.16.3.34A6,6,0,0,1,702.22,1285.79Z"/><path class="cls-4" d="M539.92,1309.93H362.43l-.46,0a6.91,6.91,0,0,1-6.25-6.32c0-.11,0-.23,0-.34v-17.43c0-.11,0-.23,0-.34a7,7,0,0,1,7.13-6.37H518.17c.07.25.14.5.22.76a54,54,0,0,0,21.21,29.87Z"/><rect class="cls-4" x="658.24" y="1279.08" width="3.76" height="30.85"/><rect class="cls-4" x="645.53" y="1279.08" width="3.76" height="30.85"/><rect class="cls-4" x="630.28" y="1279.08" width="3.76" height="30.85"/><rect class="cls-4" x="606.91" y="1279.08" width="3.76" height="30.85"/><rect class="cls-4" x="582.19" y="1279.08" width="3.76" height="30.85"/><rect class="cls-4" x="544.3" y="1279.08" width="3.76" height="30.85"/><rect class="cls-4" x="508.82" y="1279.08" width="3.76" height="30.85"/><rect class="cls-4" x="477.15" y="1279.08" width="3.76" height="30.85"/><rect class="cls-4" x="670.35" y="1279.08" width="3.76" height="30.85"/><rect class="cls-4" x="678.34" y="1279.08" width="3.76" height="30.85"/><rect class="cls-4" x="686.06" y="1279.08" width="3.76" height="30.85"/><path class="cls-4" d="M695.63,1279.19v30.64a9.36,9.36,0,0,1-1.41.1h-2.35v-30.85h2.35A9.36,9.36,0,0,1,695.63,1279.19Z"/><path class="cls-4" d="M700.85,1282V1307a8,8,0,0,1-3.76,2.51v-30A8,8,0,0,1,700.85,1282Z"/><path class="cls-3" d="M719.3,1255.7v17.42a5.92,5.92,0,0,1-1.38,3.75,7.94,7.94,0,0,1-3.75,2.52,8.86,8.86,0,0,1-1.46.34,9.36,9.36,0,0,1-1.41.11H380.78a9.24,9.24,0,0,1-3.68-.76,6.88,6.88,0,0,1-4.28-5.31l0-.3v-18.12c.22-3.53,3.73-6.37,8-6.37H711.3a9.36,9.36,0,0,1,1.41.11,8,8,0,0,1,1.46.35,7.85,7.85,0,0,1,3.75,2.51A5.92,5.92,0,0,1,719.3,1255.7Z"/><path class="cls-4" d="M557,1279.84H379.92a7.46,7.46,0,0,1-3.28-.76,6.76,6.76,0,0,1-3.82-5.31l0-.3v-18.12a7,7,0,0,1,7.13-6.37H535.25a54.13,54.13,0,0,0,20.66,30.1Z"/><rect class="cls-4" x="675.32" y="1248.98" width="3.76" height="30.86"/><rect class="cls-4" x="662.61" y="1248.98" width="3.76" height="30.86"/><rect class="cls-4" x="647.36" y="1248.98" width="3.76" height="30.86"/><rect class="cls-4" x="623.98" y="1248.98" width="3.76" height="30.86"/><rect class="cls-4" x="599.27" y="1248.98" width="3.76" height="30.86"/><rect class="cls-4" x="561.38" y="1248.98" width="3.76" height="30.86"/><rect class="cls-4" x="525.9" y="1248.98" width="3.76" height="30.86"/><rect class="cls-4" x="494.22" y="1248.98" width="3.76" height="30.86"/><rect class="cls-4" x="687.42" y="1248.98" width="3.76" height="30.86"/><rect class="cls-4" x="695.42" y="1248.98" width="3.76" height="30.86"/><rect class="cls-4" x="703.14" y="1248.98" width="3.76" height="30.86"/><path class="cls-4" d="M712.71,1249.09v30.64a9.36,9.36,0,0,1-1.41.11H709V1249h2.35A9.36,9.36,0,0,1,712.71,1249.09Z"/><path class="cls-4" d="M717.93,1252v24.92a8,8,0,0,1-3.76,2.52v-30A7.93,7.93,0,0,1,717.93,1252Z"/><path class="cls-3" d="M746.3,1224.84v17.43a5.93,5.93,0,0,1-1.37,3.75,8,8,0,0,1-3.75,2.51,8.88,8.88,0,0,1-1.46.35,9.36,9.36,0,0,1-1.41.1H407.79c-4.26,0-7.77-2.83-8-6.37,0-.11,0-.23,0-.34v-17.43c0-.11,0-.23,0-.34.2-3.27,3.22-5.94,7.05-6.32a7.3,7.3,0,0,1,.94,0H738.31a9.36,9.36,0,0,1,1.41.1,8.88,8.88,0,0,1,1.46.35,8,8,0,0,1,3.75,2.51A5.93,5.93,0,0,1,746.3,1224.84Z"/><path class="cls-4" d="M584,1249H406.93a7,7,0,0,1-7.13-6.37c0-.11,0-.23,0-.34v-17.43c0-.11,0-.23,0-.34a6.93,6.93,0,0,1,6.29-6.32,5.83,5.83,0,0,1,.84,0H562.26v0A54.07,54.07,0,0,0,584,1249Z"/><rect class="cls-4" x="702.33" y="1218.13" width="3.76" height="30.86"/><rect class="cls-4" x="689.62" y="1218.13" width="3.76" height="30.86"/><rect class="cls-4" x="674.37" y="1218.13" width="3.76" height="30.86"/><rect class="cls-4" x="651" y="1218.13" width="3.76" height="30.86"/><rect class="cls-4" x="626.28" y="1218.13" width="3.76" height="30.86"/><rect class="cls-4" x="588.39" y="1218.13" width="3.76" height="30.86"/><rect class="cls-4" x="552.91" y="1218.13" width="3.76" height="30.86"/><rect class="cls-4" x="521.23" y="1218.13" width="3.76" height="30.86"/><rect class="cls-4" x="714.44" y="1218.13" width="3.76" height="30.86"/><rect class="cls-4" x="722.43" y="1218.13" width="3.76" height="30.86"/><rect class="cls-4" x="730.15" y="1218.13" width="3.76" height="30.86"/><path class="cls-4" d="M739.72,1218.23v30.65a9.36,9.36,0,0,1-1.41.1H736v-30.85h2.35A9.36,9.36,0,0,1,739.72,1218.23Z"/><path class="cls-4" d="M744.94,1221.09V1246a8,8,0,0,1-3.76,2.51v-30A8,8,0,0,1,744.94,1221.09Z"/><path class="cls-3" d="M702.91,1194v17.42a5.91,5.91,0,0,1-1.37,3.75,8,8,0,0,1-3.75,2.51,8.88,8.88,0,0,1-1.46.35l-.47.06-.37,0H364.4c-4.26,0-7.77-2.84-8-6.38,0-.11,0-.22,0-.34V1194c0-.12,0-.24,0-.35.22-3.53,3.73-6.37,8-6.37H695.34c.34,0,.66.05,1,.1a8.86,8.86,0,0,1,1.46.34c.24.08.47.17.69.26l.41.19.05,0,.4.21.07,0,.36.22a7.64,7.64,0,0,1,.79.58l.23.2,0,0,.13.13,0,0,.23.24c.11.12.22.24.32.37A5.91,5.91,0,0,1,702.91,1194Z"/><path class="cls-4" d="M540.61,1218.18H363.54a7,7,0,0,1-7.13-6.38c0-.11,0-.22,0-.34V1194c0-.12,0-.24,0-.35a7,7,0,0,1,7.13-6.37H518.87c.06.23.13.47.2.71a54,54,0,0,0,21.47,30.1Z"/><rect class="cls-4" x="658.94" y="1187.32" width="3.76" height="30.86"/><rect class="cls-4" x="646.22" y="1187.32" width="3.76" height="30.86"/><rect class="cls-4" x="630.97" y="1187.32" width="3.76" height="30.86"/><rect class="cls-4" x="607.6" y="1187.32" width="3.76" height="30.86"/><rect class="cls-4" x="582.89" y="1187.32" width="3.76" height="30.86"/><rect class="cls-4" x="545" y="1187.32" width="3.76" height="30.86"/><rect class="cls-4" x="509.52" y="1187.32" width="3.76" height="30.86"/><rect class="cls-4" x="477.84" y="1187.32" width="3.76" height="30.86"/><rect class="cls-4" x="671.04" y="1187.32" width="3.76" height="30.86"/><rect class="cls-4" x="679.04" y="1187.32" width="3.76" height="30.86"/><rect class="cls-4" x="686.76" y="1187.32" width="3.76" height="30.86"/><path class="cls-4" d="M696.33,1187.43v30.64a9.36,9.36,0,0,1-1.41.11h-2.35v-30.86h2.35A9.36,9.36,0,0,1,696.33,1187.43Z"/><path class="cls-4" d="M701.54,1190.29v24.92a8,8,0,0,1-3.75,2.51v-30A8,8,0,0,1,701.54,1190.29Z"/><path class="cls-3" d="M727.21,1163.89v17.43a5.93,5.93,0,0,1-1.37,3.75,8,8,0,0,1-3.75,2.51,8.88,8.88,0,0,1-1.46.35,9.36,9.36,0,0,1-1.41.1H388.7a9.06,9.06,0,0,1-3.57-.71,6.87,6.87,0,0,1-4.4-5.38c0-.09,0-.18,0-.28s0-.23,0-.34v-17.43c0-.11,0-.23,0-.34.2-3.27,3.22-5.94,7-6.33.31,0,.63,0,.95,0H719.22a9.36,9.36,0,0,1,1.41.1,8.88,8.88,0,0,1,1.46.35,8,8,0,0,1,3.75,2.51A5.93,5.93,0,0,1,727.21,1163.89Z"/><path class="cls-4" d="M564.91,1188H387.84a7.38,7.38,0,0,1-3.19-.71,6.77,6.77,0,0,1-3.92-5.38c0-.09,0-.18,0-.28s0-.23,0-.34v-17.43c0-.11,0-.23,0-.34a6.94,6.94,0,0,1,6.29-6.33,7.63,7.63,0,0,1,.84,0H543.17v0a54.13,54.13,0,0,0,20.71,30.1Z"/><rect class="cls-4" x="683.24" y="1157.18" width="3.76" height="30.86"/><rect class="cls-4" x="670.52" y="1157.18" width="3.76" height="30.86"/><rect class="cls-4" x="655.27" y="1157.18" width="3.76" height="30.86"/><rect class="cls-4" x="631.9" y="1157.18" width="3.76" height="30.86"/><rect class="cls-4" x="607.19" y="1157.18" width="3.76" height="30.86"/><rect class="cls-4" x="569.29" y="1157.18" width="3.76" height="30.86"/><rect class="cls-4" x="533.82" y="1157.18" width="3.76" height="30.86"/><rect class="cls-4" x="502.14" y="1157.18" width="3.76" height="30.86"/><rect class="cls-4" x="695.34" y="1157.18" width="3.76" height="30.86"/><rect class="cls-4" x="703.34" y="1157.18" width="3.76" height="30.86"/><rect class="cls-4" x="711.06" y="1157.18" width="3.76" height="30.86"/><path class="cls-4" d="M720.63,1157.28v30.64a9.36,9.36,0,0,1-1.41.11h-2.35v-30.85h2.35A9.36,9.36,0,0,1,720.63,1157.28Z"/><path class="cls-4" d="M725.84,1160.14v24.93a8,8,0,0,1-3.75,2.51v-29.95A8,8,0,0,1,725.84,1160.14Z"/><path class="cls-3" d="M737.56,1133.08v17.43a6,6,0,0,1-1.37,3.75,8,8,0,0,1-3.76,2.51,8.88,8.88,0,0,1-1.46.35l-.46.06-.26,0H399c-4.26,0-7.77-2.83-8-6.37,0-.11,0-.22,0-.34v-17.43c0-.11,0-.23,0-.34.21-3.53,3.72-6.37,8-6.37H729.56a9.36,9.36,0,0,1,1.41.11,8.86,8.86,0,0,1,1.46.34,8,8,0,0,1,3.76,2.52A6,6,0,0,1,737.56,1133.08Z"/><path class="cls-4" d="M575.26,1157.22H398.19a7,7,0,0,1-7.13-6.37c0-.11,0-.22,0-.34v-17.43c0-.11,0-.23,0-.34a7,7,0,0,1,7.13-6.37H553.51a54.13,54.13,0,0,0,21.67,30.81Z"/><rect class="cls-4" x="693.58" y="1126.37" width="3.76" height="30.86"/><rect class="cls-4" x="680.87" y="1126.37" width="3.76" height="30.86"/><rect class="cls-4" x="665.62" y="1126.37" width="3.76" height="30.86"/><rect class="cls-4" x="642.25" y="1126.37" width="3.76" height="30.86"/><rect class="cls-4" x="617.53" y="1126.37" width="3.76" height="30.86"/><rect class="cls-4" x="579.64" y="1126.37" width="3.76" height="30.86"/><rect class="cls-4" x="544.16" y="1126.37" width="3.76" height="30.86"/><rect class="cls-4" x="512.48" y="1126.37" width="3.76" height="30.86"/><rect class="cls-4" x="705.69" y="1126.37" width="3.76" height="30.86"/><rect class="cls-4" x="713.68" y="1126.37" width="3.76" height="30.86"/><rect class="cls-4" x="721.4" y="1126.37" width="3.76" height="30.86"/><path class="cls-4" d="M731,1126.48v30.64a9.36,9.36,0,0,1-1.41.1h-2.35v-30.85h2.35A9.36,9.36,0,0,1,731,1126.48Z"/><path class="cls-4" d="M736.19,1129.33v24.93a8,8,0,0,1-3.76,2.51v-30A8,8,0,0,1,736.19,1129.33Z"/><circle class="cls-11" cx="371.88" cy="1306.18" r="157.08" transform="translate(-814.69 645.53) rotate(-45)"/><circle class="cls-3" cx="358.18" cy="1306.18" r="157.08" transform="translate(-818.7 635.84) rotate(-45)"/><path class="cls-4" d="M358.18,1451.15a143.11,143.11,0,1,1,101.2-41.91A142.17,142.17,0,0,1,358.18,1451.15Zm0-277.69c-74.21,0-134.58,60.37-134.58,134.58S284,1442.62,358.18,1442.62,492.76,1382.24,492.76,1308,432.39,1173.46,358.18,1173.46Z"/><path class="cls-4" d="M377.88,1349.57a23.54,23.54,0,0,0-.34-8.31,17.28,17.28,0,0,0-3.51-6.9,32.59,32.59,0,0,0-7-6.2,86.61,86.61,0,0,0-10.89-6.1,221.5,221.5,0,0,1-20.1-11,71,71,0,0,1-15-12.23,41.79,41.79,0,0,1-8.88-14.92q-2.8-8.27-1.53-19.07a43.15,43.15,0,0,1,5.35-16.69A39.74,39.74,0,0,1,327,1235.78a49.37,49.37,0,0,1,15.88-7.56,66.28,66.28,0,0,1,19.83-2.29l2.8-23.59,19,2.25-2.83,23.92a59.61,59.61,0,0,1,17.87,7.6,45,45,0,0,1,20,28.7,59.86,59.86,0,0,1,.78,20.27L386,1281q1.56-13.23-3.53-20.48t-14.95-8.43a25.69,25.69,0,0,0-9.37.4,17.38,17.38,0,0,0-6.83,3.32,16.2,16.2,0,0,0-4.41,5.69,24,24,0,0,0-2.09,7.46,21.72,21.72,0,0,0,.32,7.53,16.08,16.08,0,0,0,3.36,6.6,33.07,33.07,0,0,0,7.09,6.21,112,112,0,0,0,11.32,6.54q11,5.65,19.9,11.3a72.1,72.1,0,0,1,15,12.34,40.47,40.47,0,0,1,10.41,33.93,43.25,43.25,0,0,1-5.45,17,39.39,39.39,0,0,1-11.13,12.2,48,48,0,0,1-16,7.28,71.87,71.87,0,0,1-19.92,2.1L357.12,1414l-18.86-2.24,2.59-21.83a80.28,80.28,0,0,1-18.54-6.55,51,51,0,0,1-15.19-11.48,45.36,45.36,0,0,1-9.52-17.06q-3.15-10-1.58-23.21l34.29,4.07A34.09,34.09,0,0,0,331,1349a22,22,0,0,0,4.88,9.08,21.53,21.53,0,0,0,7.84,5.4,37.22,37.22,0,0,0,9.4,2.4,30.7,30.7,0,0,0,10-.27,20.55,20.55,0,0,0,7.54-3.13,16.28,16.28,0,0,0,5-5.5A19.89,19.89,0,0,0,377.88,1349.57Z"/><path class="cls-10" d="M647,1090.5c-16.08,28-36.31,38.8-36.31,38.8H526.55S659.29,1069.14,647,1090.5Z"/><path class="cls-15" d="M582.38,1307.09a7.77,7.77,0,0,0-1.38,8.32l0,0c2,5.55,8.64,11.74,16.34,17.93,1,.79,1.86,1.52,2.62,2.19l.59.52.46.41c7.18,6.63,4.48,8.14,17.38,21.58,14.72,15.31,24.85,15.58,27.73,14.19,2.44-1.19-2.52-9.31-8-18.44-.26-.44-.52-.88-.8-1.33-.73-1.21-1.45-2.44-2.18-3.66-6.43-11-4.78-16.14-3.25-32.49,1.23-13.28,20.66-74.21,20.66-74.21l-28.2-4.86s-8.49,48.52-17.85,56c-5,4-10.6,4-15.41,7-.34.2-.67.41-1,.63A37.07,37.07,0,0,0,582.38,1307.09Z"/><path class="cls-10" d="M582.38,1307.09a7.77,7.77,0,0,0-1.38,8.32l0,0c2.46,5.54,8.92,11.71,16.37,17.87,1,.81,1.83,1.55,2.59,2.25l.59.52.46.41c7.18,6.63,4.48,8.14,17.38,21.58,14.72,15.31,24.85,15.58,27.73,14.19,2.44-1.19-2.52-9.31-8-18.44a62.73,62.73,0,0,1-26.23-19.32c-8.86-11.31-14.77-25.84-20.8-34.25-.34.2-.67.41-1,.63A37.07,37.07,0,0,0,582.38,1307.09Z"/><path class="cls-15" d="M809.77,1289.48c1.74,8.7,14.15,7.25,28,3.86s10.57.64,30.3-1.54,25.7-9.54,26.3-12.48c.54-2.6-9.21-3.52-19.66-4.72l-4-.47c-11.8-1.49-20.45-9.1-31.17-15.36-10.16-5.93-25.32-30.07-25.32-30.07l-27,2.14s14.19,21.57,19.69,30.94c3.23,5.52,3.05,12.81,2.65,18.44A34.63,34.63,0,0,0,809.77,1289.48Z"/><path class="cls-10" d="M837.78,1293.34c13.86-3.39,10.57.64,30.3-1.54s25.7-9.54,26.3-12.48c.54-2.6-9.21-3.52-19.66-4.72l-.1.2a55.58,55.58,0,0,1-28.25,8.78c-13.39.33-27.57-3.51-36.81-3.36a34.63,34.63,0,0,0,.21,9.26C811.51,1298.18,823.92,1296.73,837.78,1293.34Z"/><path class="cls-10" d="M706.08,1116.47l-25.29,68.06-33,88.87a53.75,53.75,0,0,1-17.55-1.6c-7.9-2.29-17-8.26-17-8.26s9.17-95.42,26.27-150.2c4.38-14,9.3-25.43,14.72-31.83C680.77,1050.18,706.08,1116.47,706.08,1116.47Z"/><path class="cls-12" d="M680.37,1008.38c-16.58-5.34-63.84,1.52-111.31,10.81l-9.94-16.39-102.55-8s-33.83,75-15.31,122.85c2.72,7,9.46,10,18.69,10.14v0s61.19,1.49,81,1.49c51,0,107.93-35.06,115.3-36.53,12-2.41,16.87,21.7,28.93,47S798.5,1251.88,798.5,1251.88s15.56.15,22-2.26c6.91-2.59,9.44-6,9.44-6S717.73,1020.44,680.37,1008.38Z"/><path class="cls-10" d="M548.22,701.67a36.36,36.36,0,0,0-19.71-5.09,59.55,59.55,0,0,1-9.8-.64c-38.86-5.22-62.24,51.24-63.62,68.35-2.53,31.53-19.22,36.34-42.7,56.09C365.31,860,379.12,906,404.86,923.1c15.45,10.26,42.68,0,42.68,0,.38.27,74.46-41.42,111-61.52C613.26,853.8,570.22,714.77,548.22,701.67Z"/><path class="cls-15" d="M527.91,844.46c.16.11-18,6.3-30.09.93-11.4-5-20-23.8-19.87-23.81,5.19-.24,10.88-4.78,15.27-34.53l2.21.79,37.14,13.36s-2.7,11.92-4.44,23.27C526.67,834,525.88,843.12,527.91,844.46Z"/><path class="cls-16" d="M532.57,801.2s-2.7,11.92-4.44,23.27c-21.33-3.84-29.7-25.1-32.7-36.63Z"/><path class="cls-15" d="M538.1,813s-50.82-6.82-46.08-38.4,1.36-53.72,34-50.7,37.13,16,38.11,26.93S551.44,814,538.1,813Z"/><path class="cls-10" d="M562.28,733.55s-32.53,28-54.65,30.29-30.5-4.84-30.5-4.84A86.32,86.32,0,0,0,498,730.7a15.56,15.56,0,0,1,12.82-9.17C526.64,720.17,556.59,719.54,562.28,733.55Z"/><path class="cls-10" d="M542,731s10.88,10.52,14.31,18.33c3.3,7.53,4.3,25.54,1.66,32.69,0,0,17-33,7.36-49C555.1,716.1,542,731,542,731Z"/><path class="cls-17" d="M570.7,919.32c-1.54,102.85-.43,81.36-11.68,91.12-2.71,2.35-10.33,3.75-20.36,4.41-31.54,2.1-87-3.1-89.09-8.93-7.27-20.17-2.14-26.43-8.21-57.31-.63-3.28-1.41-6.84-2.33-10.71-5.06-21.21-10-28.42,8-62.49,16.29-30.86,33.2-55.91,34.72-55,43,25.49,46.42,4.06,46.42,4.06S571.45,869.14,570.7,919.32Z"/><path class="cls-12" d="M680.79,1184.53l-33,88.87a53.75,53.75,0,0,1-17.55-1.6c-7.9-2.29-17-8.26-17-8.26s9.17-95.42,26.27-150.2Z"/><path class="cls-17" d="M528.13,824.47S572.33,832,577.52,851,613.26,981.9,613.26,981.9s-22.47,4-32.85-6.35-36.12-96.3-36.12-96.3Z"/><path class="cls-18" d="M538.66,1014.85c-31.54,2.1-87-3.1-89.09-8.93-7.27-20.17-2.14-26.43-8.21-57.31l15.21-42.84s-2.51,47.71,11.56,60.25,57.59,24.22,64.43,34.7C535.86,1005.75,538,1010.8,538.66,1014.85Z"/><path class="cls-15" d="M502.52,994.79s31.12-6.93,36.14-4.17,17.29,12.82,18.83,16.32-11.18-2.66-15.32-3.77c-2.67-.71-9.72,1.74-13.21,2.9-14.69,4.89-23.69,2.38-23.69,2.38Z"/><path class="cls-17" d="M481.69,820.38s-41.78,2.58-56.25,22.75c-20.36,28.39-60.75,149.41-37.6,165.55,26.07,18.18,118.64,4.76,118.64,4.76s3.08-14.4-1.21-21.37-73.93-18.21-77.15-21.43S468.3,908,468.3,898.31,481.69,820.38,481.69,820.38Z"/><path class="cls-15" d="M540.17,999.28s6.52,8.41,8.65,9.42a6.41,6.41,0,0,0,3.52.75l-4.39-7.91Z"/><path class="cls-15" d="M538.66,990.62l19,9.21a3.39,3.39,0,0,1-3.15,1.21c-2.33-.11-8.22-2.26-8.22-2.26Z"/><polygon class="cls-19" points="548.82 1021.58 698.76 1021.58 743.87 909.42 594.16 909.42 548.82 1021.58"/><polygon class="cls-20" points="700.52 1017.21 502.52 1017.21 502.52 1021.58 698.76 1021.58 700.52 1017.21"/><path class="cls-17" d="M660.91,965.5c1.13-4-1.15-7.14-5.09-7.14a10.22,10.22,0,0,0-9.18,7.14c-1.14,3.94,1.14,7.14,5.09,7.14A10.23,10.23,0,0,0,660.91,965.5Z"/><path class="cls-2" d="M1409.22,1032.32c0-.6,3.31-68.61-29.54-84.25l2.32-2.23c15,5.25,31.73,21.5,38.4,44.44,5,17.05,1.19,20.79,1.22,21.44Z"/><path class="cls-2" d="M1323.42,897.62s-3.75,35,14.58,49.86,51.79,4,51.79,4,3.75-35-14.57-49.86S1323.42,897.62,1323.42,897.62Z"/><path class="cls-2" d="M1403.61,1159.9c-.61-3.43-12.47-83.52,17.85-172.78,29.12-85.76,13-158.47,12.87-159.19h21.43c.55,3.11,2,74.47-20.78,172.28-20.54,88,17.81,159.69,9.65,159.69Z"/><path class="cls-2" d="M1448.62,923.45c.12-.46,10.34-59.14,37.86-65.82h0c-12.3,1.6-27.93,10.41-36.67,26.81-6.5,12.2-4.22,15.65-4.34,16.13Z"/><path class="cls-2" d="M1338.48,767.8s-29.68-41.92-63.4-54.22c0,0,12.61,98.3-5.83,99.52s-6.15-110.56-6.15-110.56-87.82-48.76-123.49-47.41c0,0,50.49,98.23,32.32,94.87s-75.45-103.13-75.45-103.13-91.66-22.59-109.74,31.45,4.32,82.9,17.85,87.13,101.68,8.26,98.72,19.56-63.52,26.12-96.09,13.89c0,0,31.31,92.51,79.63,90.75s64.92-30.63,94.8-31.18,51.14,8.74,35.8,15.87-65.36-1.19-90.58,17.82-45.4,30.46-1.32,42.23,110.6-1.52,142.17-22.56c.1-.06,25.85-2.1,46.13,117.13,7.82,46,1.81,114.16,1.81,114.16l16.36-2.49c9.07-133.66-39.16-244.77-39.16-244.77S1374.7,835.35,1338.48,767.8Z"/><path class="cls-14" d="M1606.14,944.19s-98.61-41.43-63.31-116.8c0,0,29.72-47.19,65.55-62.52,0,0-7.88,107.33,12.18,107.57s.16-120.24.16-120.24,92.36-58,131.11-58.67c0,0-49,109.48-29.46,104.77S1798.11,682,1798.11,682s98.05-29.88,120.85,27.65.18,90.14-14.24,95.53-109.76,14.93-105.88,27,70.4,24.59,105,9.4c0,0-28.51,102.16-81,103.09s-72.2-29.39-104.63-28.23-54.94,12.48-37.88,19.32,70.79-5.14,99.25,14,51,30.36,3.93,45.71-134.35,19-155.86-16.17Z"/><path class="cls-2" d="M1875.31,733.4s-250.13,113.47-269.17,210.79c0,0,6,41.9-14.51,93.06l2.1,18.55s20.06-66.14,33.92-76.47C1627.65,979.33,1560.3,904.3,1875.31,733.4Z"/><path class="cls-2" d="M1591.63,1037.25s-33.16,65.34-2,136.77l10-3.93s-19.23-80.39-2.92-123.77S1591.63,1037.25,1591.63,1037.25Z"/><path class="cls-2" d="M1230.17,495.38c40.41,43,19.39,128.42,19.39,128.42s-86.55,15.68-127-27.33-19.39-128.42-19.39-128.42S1189.76,452.37,1230.17,495.38Z"/><path class="cls-14" d="M1230.17,495.38c40.41,43,19.39,128.42,19.39,128.42L1103.2,468.05S1189.76,452.37,1230.17,495.38Z"/><path class="cls-2" d="M1751.4,659.19c-21.09,24.43-68.75,17.86-68.75,17.86s-13.46-46.18,7.63-70.61S1759,588.58,1759,588.58,1772.49,634.76,1751.4,659.19Z"/><path class="cls-2" d="M1502.13,874.11c-14.14,3.92-30.51-10.58-30.51-10.58s6.56-20.86,20.7-24.78,30.5,10.58,30.5,10.58S1516.27,870.19,1502.13,874.11Z"/><path class="cls-2" d="M1252.46,415.62c9.69,23-11.19,53.73-11.19,53.73s-36.6-6.51-46.29-29.49,11.19-53.73,11.19-53.73S1242.77,392.64,1252.46,415.62Z"/><circle class="cls-11" cx="1447.08" cy="609.89" r="215.66" transform="translate(-7.42 1201.87) rotate(-45)"/><circle class="cls-3" cx="1428.41" cy="612.24" r="215.66" transform="translate(-14.55 1189.36) rotate(-45)"/><path class="cls-4" d="M1453.28,809.72a196.48,196.48,0,1,1,130.66-74.45A195.18,195.18,0,0,1,1453.28,809.72Zm-47.63-378.27c-101.09,12.73-173,105.32-160.24,206.4s105.32,173,206.4,160.24,173-105.32,160.24-206.4S1506.73,418.72,1405.65,431.45Z"/><path class="cls-4" d="M1462.69,668a32.54,32.54,0,0,0-1.88-11.26,23.84,23.84,0,0,0-6-8.8,45,45,0,0,0-10.64-7.24,117.79,117.79,0,0,0-15.88-6.44,309.89,309.89,0,0,1-29.28-11.6,97.74,97.74,0,0,1-22.58-14.09,57.45,57.45,0,0,1-14.65-18.79q-5.25-10.79-5.36-25.72a59.25,59.25,0,0,1,4.43-23.66,54.61,54.61,0,0,1,13-18.68,68.13,68.13,0,0,1,20.33-13,90.77,90.77,0,0,1,26.62-6.52l-.24-32.61,26.25-.19.24,33.07a81.57,81.57,0,0,1,25.65,7.28,61.56,61.56,0,0,1,32.16,35.67,81.83,81.83,0,0,1,4.55,27.47l-47.42.34q-.12-18.28-8.31-27.3T1431.9,537a35.3,35.3,0,0,0-12.7,2.15,24,24,0,0,0-8.74,5.7,22.33,22.33,0,0,0-5,8.5,32.72,32.72,0,0,0-1.56,10.53,30,30,0,0,0,1.71,10.19,22.25,22.25,0,0,0,5.72,8.42A44.81,44.81,0,0,0,1422,589.7a152,152,0,0,0,16.54,7q15.95,5.82,29,12a99.24,99.24,0,0,1,22.5,14.24,58.48,58.48,0,0,1,14.65,18.87q5.25,10.8,5.35,25.57a59.21,59.21,0,0,1-4.5,24.11A54,54,0,0,1,1492.52,710a65.74,65.74,0,0,1-20.5,12.64,98.16,98.16,0,0,1-26.77,6.29l.21,30.33-26.08.18-.22-30.17a109.87,109.87,0,0,1-26.37-5.76,69.6,69.6,0,0,1-22.66-13,62.43,62.43,0,0,1-15.9-21.6q-6-13.07-6.13-31.35l47.41-.34q.08,10.82,3.17,18a30.18,30.18,0,0,0,8.2,11.53,29.31,29.31,0,0,0,11.61,6,50.33,50.33,0,0,0,13.22,1.66,42.11,42.11,0,0,0,13.52-2.08,28.2,28.2,0,0,0,9.72-5.55,22.38,22.38,0,0,0,5.85-8.35A27.18,27.18,0,0,0,1462.69,668Z"/><polygon class="cls-21" points="1619.14 1139.07 1619.12 1139.24 1614.83 1205.31 1598.86 1450.59 1300.37 1450.59 1282.79 1208.67 1277.95 1141.99 1277.74 1139.07 1619.14 1139.07"/><path class="cls-22" d="M1619.12,1139.24l-4.29,66.07c-22.49-7.84-85-26.66-166.39-26.66-102.81,0-165.65,30-165.65,30L1278,1142Z"/><polygon class="cls-21" points="1629.51 1173.99 1266.92 1173.99 1262.76 1131.84 1634.12 1131.84 1629.51 1173.99"/><polygon class="cls-22" points="1603.45 1463.69 1293.96 1463.69 1290.42 1449 1607.38 1449 1603.45 1463.69"/><path class="cls-2" d="M1068.08,1327c-.28-1.54-5.62-37.57,8-77.72,13.1-38.57,5.85-71.28,5.79-71.6h9.64c.25,1.4.92,33.5-9.35,77.49-9.24,39.59,8,71.83,4.34,71.83Z"/><path class="cls-2" d="M1088.32,1220.68c0-.2,4.65-26.6,17-29.6h0c-5.53.72-12.56,4.68-16.5,12.06-2.92,5.48-1.89,7-1.95,7.25Z"/><path class="cls-2" d="M1065.45,1214.51s-12.11-19.67-26.89-26.17c0,0,2.81,44.49-5.5,44.5s.44-49.8.44-49.8-38-24.44-54.06-24.86c0,0,19.82,45.55,11.76,43.52s-30.88-48.48-30.88-48.48-40.49-12.8-50.17,10.94-.46,37.33,5.49,39.63,45.4,6.65,43.75,11.64-29.27,9.88-43.54,3.44c0,0,11.38,42.44,33.12,43.05s30-11.87,43.45-11.25,22.71,5.4,15.61,8.16-29.3-2.43-41.17,5.38-21.26,12.35-1.82,18.91,49.69,2.52,64.47-6c0,0,11.67-.19,17.32,53.92,2.17,20.86-2.5,51.29-2.5,51.29l7.42-.64c7.94-59.73-10.49-111-10.49-111S1079.75,1245.88,1065.45,1214.51Z"/><path class="cls-2" d="M1112.39,1198.49c-6.36,1.77-13.72-4.76-13.72-4.76s2.95-9.38,9.3-11.14,13.73,4.75,13.73,4.75S1118.75,1196.73,1112.39,1198.49Z"/><path class="cls-2" d="M1185.55,1055.09c-22.21,14.54-22,54.11-22,54.11s36.19,16,58.4,1.44,22-54.11,22-54.11S1207.75,1040.55,1185.55,1055.09Z"/><path class="cls-14" d="M1185.55,1055.09c-22.21,14.54-22,54.11-22,54.11l80.43-52.67S1207.75,1040.55,1185.55,1055.09Z"/><path class="cls-2" d="M1184.21,1017.86c-6.66,9-.77,24.68-.77,24.68s16.69,1,23.35-8,.77-24.68.77-24.68S1190.87,1008.84,1184.21,1017.86Z"/><circle class="cls-11" cx="1087.63" cy="1079.64" r="97.01" transform="translate(-444.87 1085.29) rotate(-45)"/><circle class="cls-3" cx="1079.23" cy="1080.7" r="97.01" transform="translate(-68.1 72.59) rotate(-3.73)"/><path class="cls-4" d="M1090.41,1169.53a88.37,88.37,0,1,1,58.78-33.49A87.8,87.8,0,0,1,1090.41,1169.53ZM1069,999.38a83.11,83.11,0,1,0,92.84,72.08A83.2,83.2,0,0,0,1069,999.38Z"/><path class="cls-4" d="M1094.65,1105.77a14.78,14.78,0,0,0-.85-5.07,10.68,10.68,0,0,0-2.68-4,20.13,20.13,0,0,0-4.79-3.26,53.27,53.27,0,0,0-7.14-2.9,135,135,0,0,1-13.17-5.22,44,44,0,0,1-10.16-6.33,25.8,25.8,0,0,1-6.59-8.46,29.2,29.2,0,0,1-.42-22.21,24.63,24.63,0,0,1,5.85-8.4,30.65,30.65,0,0,1,9.14-5.86,40.88,40.88,0,0,1,12-2.93l-.1-14.67,11.81-.08.1,14.87a36.58,36.58,0,0,1,11.54,3.28,27.74,27.74,0,0,1,14.47,16,36.81,36.81,0,0,1,2,12.36l-21.33.15q-.06-8.22-3.74-12.28a12.46,12.46,0,0,0-9.8-4,16,16,0,0,0-5.72,1,10.86,10.86,0,0,0-3.93,2.56,10.14,10.14,0,0,0-2.26,3.83,14.79,14.79,0,0,0-.7,4.73,13.55,13.55,0,0,0,.77,4.59,10,10,0,0,0,2.57,3.79,20.4,20.4,0,0,0,4.82,3.25,67.93,67.93,0,0,0,7.44,3.14q7.18,2.61,13.07,5.39a44.68,44.68,0,0,1,10.12,6.4,27.73,27.73,0,0,1,7,30.84,24.28,24.28,0,0,1-5.88,8.33,29.62,29.62,0,0,1-9.22,5.69,44.15,44.15,0,0,1-12,2.83l.1,13.64-11.74.08-.09-13.57a49.24,49.24,0,0,1-11.87-2.59,31.45,31.45,0,0,1-10.19-5.85,28.07,28.07,0,0,1-7.15-9.72,34.2,34.2,0,0,1-2.76-14.1l21.33-.16a21.18,21.18,0,0,0,1.42,8.12,13.73,13.73,0,0,0,3.69,5.18,13.42,13.42,0,0,0,5.23,2.71,22.39,22.39,0,0,0,5.94.74,19.18,19.18,0,0,0,6.08-.93,12.7,12.7,0,0,0,4.38-2.5,10.06,10.06,0,0,0,2.63-3.76A12.28,12.28,0,0,0,1094.65,1105.77Z"/><polygon class="cls-5" points="1165.02 1317.67 1165.01 1317.75 1163.08 1347.46 1155.9 1457.8 1021.63 1457.8 1013.73 1348.98 1011.55 1318.99 1011.46 1317.67 1165.02 1317.67"/><path class="cls-6" d="M1165,1317.75l-1.93,29.72c-10.12-3.53-38.22-12-74.84-12-46.25,0-74.51,13.5-74.51,13.5l-2.18-30Z"/><polygon class="cls-5" points="1169.68 1333.38 1006.59 1333.38 1004.72 1314.42 1171.76 1314.42 1169.68 1333.38"/><polygon class="cls-5" points="1157.96 1463.69 1018.75 1463.69 1017.16 1457.08 1159.73 1457.08 1157.96 1463.69"/><path class="cls-15" d="M1718.25,896.55s-15.33-3-18.84,0-20.13,19.89-16.57,25.43,20.63-4.59,24.18-5.55,13.47-4.83,13.47-4.83Z"/><path class="cls-12" d="M1881.18,1438.63l16.43,6.12s71.39-99,80.18-186.13c1.57-15.55,1-30.62-2.35-44.53,0,0,.7-4,1.92-11,.57-3.28,1.27-7.24,2.06-11.78,2.32-13.3,5.51-31.49,9.16-52.21,8.4-47.68,19.28-108.63,27.74-153.43l-4.43-1.42L1964,968.75l-9.9-31.45-35.68-9.4s-8,15.59-15.1,89.25c-1.31,9.66-2.51,20.32-3.41,31.87a630.84,630.84,0,0,0,3.4,129c1.64,12.8,3.7,26,6.26,39.6,1.88,10,2.17,23.52,1.37,39.1C1907.32,1328,1881.18,1438.63,1881.18,1438.63Z"/><path class="cls-10" d="M1899.88,1049l77.48,154c.57-3.28,1.27-7.24,2.06-11.78,2.32-13.3,5.51-31.49,9.16-52.21,8.4-47.68,19.28-108.63,27.74-153.43l-4.43-1.42L1964,968.75l-9.9-31.45-35.68-9.4s-8,15.59-15.1,89.25C1902,1026.81,1900.78,1037.47,1899.88,1049Z"/><path class="cls-12" d="M1934,947.67l1.79-15.38c30,8,110.34-22.31,110.34-22.31s29.11,25.59,25.29,86.93c-1.87,29.94-5.27,157.16-8.83,194.81-1.29,13.64-2.42,23.35-2.88,27.23a.08.08,0,0,0,0,0,5.39,5.39,0,0,0,.88,3.33,177.41,177.41,0,0,1,13.14,27.63c34.93,93.09-5.39,207.73-5.39,207.73l-10.46-4.22s-22.94-127.58-41.58-183.94c-3.16-9.56-6.2-17.07-9-21.56-8.11-13.08-15.63-34.45-22.46-59.87-12.9-48.06-23.29-110.59-30.2-158.84C1953.68,1029.29,1934,947.67,1934,947.67Z"/><path class="cls-15" d="M1718.25,896.55l2.24,15.05s1,0,2.73-.12c5.48-.38,18.79-1.12,33.84-2.74,22.64-2.24,49.5-6.22,60.2-12.81,16.29-9.95,43-40.43,60.45-70.9a20.94,20.94,0,0,0,1.25-2.24c9.07-16.17,15.42-32.22,15.92-45a64.35,64.35,0,0,0-2.12-20.4,52,52,0,0,0-9.2-18.4,9.4,9.4,0,0,0-1.74-2.12A43,43,0,0,0,1870,726.77c-3-1.25-6.22.24-9.58,3.85v.13a56.89,56.89,0,0,0-8.58,12.68c-.13.13-.25.25-.25.38-.62,1.12-1.24,2.36-2,3.73a3.24,3.24,0,0,0-.5.87q-2.05,4.29-4.1,9c-15.3,33.34-31.6,83.84-45.15,98.89-5.85,6.47-32.59,19.15-53.86,28.61C1730.69,891.58,1718.25,896.55,1718.25,896.55Z"/><path class="cls-15" d="M1876.56,761.1c9.44,4.38,20.83,7.36,34.61,8.11,51.66,2.83,63.39-42.46,65.52-72.52a43.44,43.44,0,0,0-17.72-2.24c-3.67.21-7.49.58-10.64,1-6.33-3.3-17.68-19.34-24.24-46.16l-2.23,1-37.28,17.53s4,12.13,6.89,23.73c2.28,9.09,3.92,17.87,2.55,20.32-2.94,1.2-4.7,2-4.7,2v0A255.44,255.44,0,0,0,1876.56,761.1Z"/><path class="cls-19" d="M1863.64,795c.39,1,.82,2,1.29,3.07C1878,826.25,1902.23,943,1902.23,943c-3.45,21,157.73-4.12,158.14-23.22,5.68-20.27-20.14-52.82-34.7-69.15a46.49,46.49,0,0,1-4.88-6.58,45.85,45.85,0,0,1-6.61-19.27c-2.85-27.08-1.77-52.47-2-67.91h0c-2.84-2.11-5.59-4.05-8.16-5.9a72.9,72.9,0,0,1-9.93-8.24c-2.8-3-4.56-6-4.76-9.38a49.49,49.49,0,0,1,.2-7.87c.12-1.24.28-2.49.47-3.74a106.43,106.43,0,0,1,7.49-25c-13.86-5.61-38.51-2.27-38.51-2.27s0,1.37,0,3.61c.08,9,0,32.13-2.89,36.5-3.61,5.45-69.64,29.32-73.13,21.93s6-41.34,6.32-42.63v0c-22.11,8.68-30,16-30,16C1872.63,738.43,1853.33,767.67,1863.64,795Z"/><path class="cls-23" d="M1908.12,551.51c.08-2.24,1.81-26.38,38.58-27.64,0,0-18.08,2.16-21.2,10.1,0,0,12.3-9.82,22.33-6.66s15.91,20.72,16,26.5-5.51,24.4-11.87,26a19.43,19.43,0,0,1-7.71,0,85.35,85.35,0,0,1,4.94,8.82c14.67,30.11-.46,59.54-12.88,56.29-8-2.09-10.22,11.5-10.22,11.5l-77.38-62.64S1877.11,535,1908.12,551.51Z"/><path class="cls-24" d="M1884.58,667.82s4,12.12,6.89,23.74c21.79-6.08,28.4-29,30.4-41.26Z"/><path class="cls-15" d="M1880,680.66s52.13-12.07,44.11-44.42-6.68-55.69-40.3-49.35-37,20.27-37,31.72S1866.23,683,1880,680.66Z"/><path class="cls-23" d="M1843.92,600.24c5.6-11.72,12.2-11.1,16.33-9,24.49-22.66,48.52-4.15,48.52-4.15,9.24,22.34,29.29,31.47,29.29,31.47s-8,8.2-31.22,8c-7.09,0-14.22-3.31-20.71-7.79A124.78,124.78,0,0,0,1913.31,639c-29-5.56-48.54-39.2-50.53-42.77-2.47,3.63-7.17,11.37-7.57,17.91-.54,8.87,2.52,26.12-2.57,26.77C1852.64,641,1835.51,617.83,1843.92,600.24Z"/><path class="cls-19" d="M1859.3,729.78s-12.55,21.9-14.43,27.53c0,0,16.28-.63,22.85,11.89C1867.72,769.2,1869.29,732.73,1859.3,729.78Z"/><path class="cls-20" d="M1945.63,903.76c31.79-.33,58.7-33.34,75.16-59.73a45.85,45.85,0,0,1-6.61-19.27c-2.85-27.08-1.77-52.47-2-67.91h0c-2.84-2.11-5.59-4.05-8.16-5.9a72.9,72.9,0,0,1-9.93-8.24C1968.05,786.71,1902.53,904.22,1945.63,903.76Z"/><path class="cls-15" d="M1825.47,921.05l4.35,15.92s5.48-1,14.18-2.61c2.61-.49,4.11-.87,4.11-.87,7-1.36,15.3-3.23,24.38-5.22h.12c15.55-3.73,33-8.21,47.64-13.19,10.32-3.6,19.28-7.46,25.38-11.32a15.21,15.21,0,0,0,1.74-1.24c14.55-10.57,31.84-41.67,45.27-75,1.87-4.6,3.61-9.21,5.35-13.68a340.93,340.93,0,0,0,14.18-47.27,133.33,133.33,0,0,0,3.36-22.52,54.62,54.62,0,0,0,.12-6.34c-.25-36.07-18.16-41.05-18.16-41.05-.37-.12-.74-.24-1.24-.37-3.11-.5-6.34,1.62-9.7,5.72-4.23,5.1-8.71,13.44-13.31,23.51-7.09,16.05-14.56,36.82-21.52,57.47-3.86,11.32-7.59,22.64-11.32,33.08-2.11,6.35-4.23,12.32-6.22,17.79-3.85,10.45-7.34,18.91-10.45,24.26-2,3.48-7.71,8.33-15.3,13.8-13.18,9.58-32.46,21.15-49.25,30.6-7,4-13.56,7.59-19,10.57C1831.32,918,1825.47,921.05,1825.47,921.05Z"/><path class="cls-19" d="M1973.28,725.57c24-6.6,42.42,12.1,42.42,12.1-.3-36-18.23-40.95-18.23-40.95C1990.26,693.74,1981.9,706.23,1973.28,725.57Z"/><path class="cls-10" d="M2007.48,1466.22h82.79s2-12.61-2.34-22.18c-4.15-9.19-10.64-13.36-9.08-24.48-5.26,5.42-13.84,11.49-25.8,9.88-1.47,2.37-9.47,15.1-14.37,18.61C2033.27,1451.94,2009.15,1450.56,2007.48,1466.22Z"/><path class="cls-10" d="M1829.74,1466.22h82.78s3.1-13.2-2.34-22.18c-4.81-8-3-12.48.6-19.06a32.18,32.18,0,0,1-14,2.63c-4.12-.24-8.48-2.11-12.31-4.33-3.56,4.06-18.81,21.35-23.58,24.77C1855.53,1451.94,1831.41,1450.56,1829.74,1466.22Z"/><path class="cls-25" d="M1820.54,994.82l-19.67-48a13.3,13.3,0,0,0-15.81-7.75,82,82,0,0,0-25.66-29.2c-10.73-7.38-22.76-11.45-34.64-11.4a49.11,49.11,0,0,0-18.49,3.66c-28,11.46-40.51,46.81-30.24,81.51l-1.53.62s-4.78-.33-12.8-.33c-25.34,0-82.93,3.37-123.33,31.43a11.13,11.13,0,0,0-2.64,6.83,10.82,10.82,0,0,0,.85,4.53s64.86-42,124.85,1.16q5.52,4,10.73,7.36l5.38,13.13a42.9,42.9,0,0,0,55.81,23.36l54.94-22.52,11.45-4.69A38.2,38.2,0,0,0,1820.54,994.82ZM1714,955.92l-22.37,9.18a13.11,13.11,0,0,0-7.71,15.31l-2.4,1c-9.11-31.62,2-63.5,27-73.74a41.65,41.65,0,0,1,10.76-2.84c11.5-1.52,23.48,1.58,34.26,8.3a75.38,75.38,0,0,1,25.94,28.13l-3.3,1.36a13.12,13.12,0,0,0-16.23-5.5l-22.39,9.18a11.06,11.06,0,0,0-14.41-6l-3.1,1.27A11.08,11.08,0,0,0,1714,955.92Z"/><path class="cls-26" d="M1672.16,1035.25q-5.22-3.4-10.73-7.36c-60-43.16-124.85-1.16-124.85-1.16a10.82,10.82,0,0,1-.85-4.53c9.08-6,43.11-25.86,85.27-19.07C1670.41,1011.1,1679.34,1018,1672.16,1035.25Z"/><path class="cls-26" d="M1799.74,1044.53l-11.45,4.69c17.16-9.37-4.09-49-16.53-75.09s-31.23-14.19-31.23-14.19c-4.31-8.76-13.54-8.29-13.54-8.29-.49-8.44-6.93-10.14-6.93-10.14l3.1-1.27a11.06,11.06,0,0,1,14.41,6L1760,937.1a13.12,13.12,0,0,1,16.23,5.5l3.3-1.36a75.38,75.38,0,0,0-25.94-28.13c-10.78-6.72-22.76-9.82-34.26-8.3a24.62,24.62,0,0,0,5.47-6.33c11.88-.05,23.91,4,34.64,11.4a82,82,0,0,1,25.66,29.2,13.3,13.3,0,0,1,15.81,7.75l19.67,48A38.2,38.2,0,0,1,1799.74,1044.53Z"/><path class="cls-15" d="M1774,936.48c8,3.36,19.16,15,37.07,8a277.87,277.87,0,0,1,33-10.08c2.61-.49,4.11-.87,4.11-.87L1841,912.84a3.58,3.58,0,0,1-.87.25c-4.61,1-28,6-38.94,3.49-12.31-2.86-33,11.94-33,11.94S1766,933.24,1774,936.48Z"/><path class="cls-27" d="M1549.25,1061.39c0-7.47-13.53-30.52-13.53-30.52s-13.52,23.05-13.52,30.52a13.53,13.53,0,1,0,27,0Z"/><path class="cls-28" d="M1916.57,165.54l-19.85,4.32-.48.11a4.84,4.84,0,0,0-3.77,5.23l1.79,16.88a4.52,4.52,0,0,1,0,.82,4.77,4.77,0,0,1-3.16,4.17,84.74,84.74,0,0,0-28.7,17.22,5.26,5.26,0,0,1-1.13.77,4.94,4.94,0,0,1-4.82-.33l-11.74-7.91a4.92,4.92,0,0,0-5.11-.18,5.18,5.18,0,0,0-1.31,1.09l-13.37,15.86a5,5,0,0,0,.3,6.69l13.33,13.31a4.79,4.79,0,0,1,1.11,5c-.87,2.54-1.66,5.09-2.31,7.73a84.86,84.86,0,0,0-2.3,14.79v0a4.88,4.88,0,0,1-3.44,4.37l-18.28,5.66-.91.29a4.78,4.78,0,0,0-3.27,5.59l4.42,20.29a5,5,0,0,0,5.38,3.89l18.78-2a4.83,4.83,0,0,1,4.93,2.8,84.77,84.77,0,0,0,14.55,21.77,4.86,4.86,0,0,1,.43,6l-9.35,13.93a4.94,4.94,0,0,0,.93,6.55l15.93,13.44a4.72,4.72,0,0,0,6.38-.28l15.67-15.65a5,5,0,0,1,5.08-1.19c2.19.74,4.43,1.4,6.72,2a86.37,86.37,0,0,0,12.89,2.18,4.72,4.72,0,0,1,4.16,3.33l6.77,22a4.86,4.86,0,0,0,5.67,3.31l20.37-4.42a4.88,4.88,0,0,0,3.8-4.53,3.3,3.3,0,0,0,0-.7l-2.2-20.84a4.8,4.8,0,0,1,2.41-4.75,2.51,2.51,0,0,1,.46-.24,13.11,13.11,0,0,0,1.37-.65,84.74,84.74,0,0,0,15.53-9.26,4.7,4.7,0,0,1,5.53-.12l14.72,9.87a4.94,4.94,0,0,0,6.53-.94l3-3.52,10.36-12.33a4.87,4.87,0,0,0-.28-6.58l-13.13-13.11a4.71,4.71,0,0,1-.94-5.32,85.16,85.16,0,0,0,5.23-15,86.15,86.15,0,0,0,2-11.74l3.83-1.18,15.73-4.88a4.7,4.7,0,0,0,3.35-4.32,4.38,4.38,0,0,0-.11-1.24l-4.41-20.44a4.89,4.89,0,0,0-5.25-3.78l-12.83,1.38a4.85,4.85,0,0,1-5-3.1,85.08,85.08,0,0,0-13.13-23.42,4.69,4.69,0,0,1-.24-5.64L1997,200.94a4.69,4.69,0,0,0-.88-6.16L1980,181.22a4.72,4.72,0,0,0-6.43.27l-16.3,16.28a4.81,4.81,0,0,1-5.33,1,82.32,82.32,0,0,0-12.35-4.07c-2.31-.57-4.62-1-6.93-1.42a4.9,4.9,0,0,1-3.86-3.34l-6.5-21.06A4.93,4.93,0,0,0,1916.57,165.54Zm-39.92,95.14a52.49,52.49,0,0,1,9-15.34,29.75,29.75,0,0,1,3.11-3.19c5.17-4.54,12.7-8.65,18.56-9.9,44.84-9.48,74.58,38.84,46.69,74.4-.46.58-.93,1.15-1.42,1.73-4.52,5.37-13.92,11-20.77,12.52a55.55,55.55,0,0,1-10.46,1.32C1887.66,323.12,1865.58,290.69,1876.65,260.68Z"/><path class="cls-29" d="M2219.71,234.36l-31.24,2.83-.74.07a7.48,7.48,0,0,0-6.79,7.29l-.48,26.19a8.67,8.67,0,0,1-.13,1.27,7.36,7.36,0,0,1-5.65,5.78,130.63,130.63,0,0,0-47.26,20.89,8.11,8.11,0,0,1-1.88.95,7.6,7.6,0,0,1-7.33-1.43l-16.47-14.37a7.58,7.58,0,0,0-7.79-1.25,8.4,8.4,0,0,0-2.22,1.41l-23.52,21.75a7.63,7.63,0,0,0-.82,10.31L2085.25,339a7.39,7.39,0,0,1,.75,7.89c-1.83,3.71-3.51,7.48-5,11.39a130.15,130.15,0,0,0-6.36,22.22v0a7.52,7.52,0,0,1-6.11,6l-29.08,5.17L2038,392a7.37,7.37,0,0,0-6.07,7.93l2.87,31.94a7.71,7.71,0,0,0,7.5,7l29.15.55a7.45,7.45,0,0,1,7,5.25,131.19,131.19,0,0,0,18.13,36.13,7.49,7.49,0,0,1-.49,9.24l-17,19.56a7.62,7.62,0,0,0,.17,10.21l21.82,23.63a7.28,7.28,0,0,0,9.83.8l27-21a7.65,7.65,0,0,1,8-.86q4.83,2.34,9.93,4.3a132,132,0,0,0,19.33,5.8,7.25,7.25,0,0,1,5.72,5.91l6.17,35a7.51,7.51,0,0,0,8,6.16l32.06-2.86a7.55,7.55,0,0,0,6.69-6.22,5.43,5.43,0,0,0,.09-1.08l.63-32.34a7.41,7.41,0,0,1,4.61-6.82,3.85,3.85,0,0,1,.74-.27,22.39,22.39,0,0,0,2.23-.74A130,130,0,0,0,2267.71,518a7.25,7.25,0,0,1,8.5.88l20.67,17.94a7.61,7.61,0,0,0,10.17-.19l5.24-4.82,18.24-16.9a7.51,7.51,0,0,0,.83-10.14l-17.6-22.6a7.26,7.26,0,0,1-.42-8.32,131.62,131.62,0,0,0,10.89-22,129.63,129.63,0,0,0,5.37-17.59l6.1-1.07,25-4.46a7.26,7.26,0,0,0,6-6,6.48,6.48,0,0,0,.07-1.92l-2.83-32.16a7.57,7.57,0,0,0-7.33-6.8l-19.92-.34a7.49,7.49,0,0,1-7.11-5.72,131.79,131.79,0,0,0-15.62-38.4,7.25,7.25,0,0,1,.71-8.68L2336.14,304a7.22,7.22,0,0,0-.16-9.61l-22.09-23.86a7.32,7.32,0,0,0-9.91-.83l-28.09,21.82a7.43,7.43,0,0,1-8.37.56,126.37,126.37,0,0,0-18.13-8.6q-5.14-2-10.35-3.51a7.54,7.54,0,0,1-5.27-5.84l-5.93-33.52A7.62,7.62,0,0,0,2219.71,234.36Zm-79.38,138.11a80.73,80.73,0,0,1,16.73-21.77,45.33,45.33,0,0,1,5.39-4.29c8.78-6,21.11-10.82,30.32-11.61,70.52-5.94,106.81,73.79,57.27,122.92-.82.8-1.65,1.6-2.51,2.38-8,7.36-23.43,14.18-34.21,15.2a87.69,87.69,0,0,1-16.28,0C2145.21,470.23,2117.61,416.33,2140.33,372.47Z"/></g></g></svg>